<?xml version="1.0" standalone="no"?>
<!DOCTYPE svg PUBLIC "-//W3C//DTD SVG 20010904//EN"
 "http://www.w3.org/TR/2001/REC-SVG-20010904/DTD/svg10.dtd">
<svg version="1.0" xmlns="http://www.w3.org/2000/svg"
 width="2388.000000pt" height="1668.000000pt" viewBox="0 0 2388.000000 1668.000000"
 preserveAspectRatio="xMidYMid meet">
<metadata>
Created by potrace 1.16, written by Peter Selinger 2001-2019
</metadata>
<g transform="translate(0.000000,1668.000000) scale(0.100000,-0.100000)"
fill="#000000" stroke="none">
<path d="M8927 14593 c-12 -11 -8 -41 6 -46 14 -5 -14 -32 -50 -47 -23 -10
-101 -61 -463 -305 -304 -204 -418 -284 -426 -296 -3 -6 -1 -16 4 -21 8 -8 68
27 204 117 284 187 359 237 507 338 114 77 136 89 152 79 27 -17 69 -14 108 7
l34 18 40 -46 c104 -118 384 -391 400 -391 10 0 20 7 24 16 7 19 -183 215
-342 352 l-100 87 23 24 c50 54 10 121 -73 121 -23 0 -45 -3 -48 -7z"/>
<path d="M8900 14338 c0 -18 20 -204 45 -413 25 -209 48 -402 51 -430 l6 -50
-137 -118 c-75 -65 -142 -120 -148 -123 -7 -2 -75 48 -150 111 -76 63 -162
133 -192 155 -29 21 -119 93 -199 159 -80 67 -164 134 -186 150 -34 25 -38 30
-25 41 9 7 15 29 15 50 0 53 -44 90 -106 90 -28 0 -44 -5 -45 -12 -5 -48 -21
-78 -43 -78 -11 0 -205 13 -431 30 -225 16 -422 30 -437 30 -20 0 -27 6 -30
23 -4 32 -61 57 -131 57 -51 0 -59 -3 -66 -22 -12 -31 5 -51 30 -37 11 5 36 7
57 3 41 -7 77 -23 53 -24 -8 0 -11 -7 -8 -20 4 -15 -9 -33 -50 -70 -46 -42
-61 -51 -87 -48 -29 3 -31 6 -34 46 -2 25 3 56 12 74 20 39 20 38 -3 38 -26 0
-42 -22 -48 -67 -4 -33 -15 -45 -72 -89 -76 -59 -362 -310 -404 -356 -17 -18
-34 -27 -43 -24 -27 10 -83 -20 -90 -49 -4 -15 -2 -31 3 -36 7 -7 5 -24 -4
-52 -17 -50 -6 -79 38 -98 16 -6 29 -15 29 -19 0 -5 -32 -129 -70 -277 -70
-268 -163 -640 -326 -1301 -65 -267 -84 -356 -75 -365 29 -29 46 8 89 194 41
172 399 1636 409 1669 4 15 68 -128 129 -290 57 -152 378 -914 416 -990 13
-26 30 -45 39 -44 11 1 14 -6 11 -27 -4 -25 -21 -38 -130 -100 -69 -40 -197
-116 -283 -170 -86 -54 -188 -114 -225 -135 -166 -90 -289 -172 -292 -193 -2
-12 3 -24 11 -27 9 -3 96 44 209 114 106 65 225 137 263 160 39 22 158 95 265
161 125 78 200 119 210 115 8 -4 31 -9 50 -12 l35 -5 160 -320 c88 -176 183
-368 212 -428 l52 -108 -97 -72 c-53 -40 -162 -123 -242 -186 -327 -255 -323
-252 -341 -242 -26 14 -92 11 -115 -5 -19 -13 -25 -8 -100 87 -44 56 -95 123
-113 149 l-33 47 190 353 c229 426 365 696 357 708 -17 28 -15 31 -267 -430
-80 -146 -180 -332 -222 -415 -43 -82 -81 -154 -85 -158 -5 -5 -57 56 -116
135 -149 197 -247 318 -257 318 -5 0 -11 -7 -14 -15 -7 -16 6 -35 208 -306 76
-102 138 -192 138 -199 0 -6 -57 -116 -127 -244 -70 -127 -157 -291 -195 -364
l-68 -134 0 159 c0 166 -26 922 -34 1007 -4 38 -1 54 14 74 58 73 -17 170
-105 136 -21 -8 -45 -56 -45 -89 0 -30 41 -75 68 -75 22 0 22 -11 44 -822 13
-510 12 -517 -49 -564 -23 -18 -36 -38 -45 -71 -8 -34 -19 -50 -41 -62 -16 -9
-136 -79 -266 -157 -130 -77 -263 -155 -296 -173 -33 -18 -81 -49 -107 -67
-27 -19 -48 -29 -48 -23 0 6 84 212 186 457 103 246 208 503 234 572 26 69 76
193 110 275 110 267 250 616 250 625 0 22 -38 8 -50 -17 -37 -82 -208 -484
-247 -583 -25 -63 -80 -198 -123 -300 -190 -449 -271 -645 -324 -780 -32 -80
-66 -166 -77 -192 -10 -26 -19 -53 -19 -61 0 -8 -7 -27 -15 -43 -8 -17 -17
-62 -21 -101 -6 -67 -5 -73 18 -96 13 -13 22 -29 20 -35 -2 -7 3 -58 12 -115
9 -56 23 -156 31 -222 16 -123 61 -423 70 -461 3 -15 -2 -24 -20 -32 -26 -12
-34 -45 -14 -57 6 -4 7 -19 4 -36 -8 -36 6 -55 45 -64 17 -4 42 -22 59 -43 16
-21 92 -110 168 -200 111 -129 140 -168 140 -191 0 -37 19 -61 48 -61 18 0 27
-11 46 -57 30 -77 195 -479 276 -673 36 -85 90 -220 120 -300 31 -80 86 -217
123 -305 56 -135 64 -161 51 -167 -9 -3 -31 -20 -48 -37 -28 -25 -33 -37 -33
-76 0 -53 19 -95 56 -124 31 -25 55 -26 92 -7 26 13 32 11 154 -73 70 -47 176
-120 235 -161 59 -41 134 -92 167 -112 37 -23 64 -48 72 -67 25 -59 94 -48
131 22 9 18 17 56 17 85 1 44 -3 57 -21 72 -13 10 -23 29 -23 43 0 14 -4 47
-10 74 -5 26 -14 82 -21 123 -6 41 -22 125 -35 185 -14 61 -33 152 -44 203
-11 52 -22 97 -24 101 -2 3 -34 119 -71 256 -37 137 -78 278 -92 312 -24 59
-24 63 -8 80 24 24 45 76 45 113 0 21 10 41 33 63 17 18 87 105 155 192 138
179 140 181 176 212 35 29 36 84 1 118 -13 14 -30 25 -38 25 -10 0 32 124 135
403 168 456 291 819 286 845 -2 9 9 27 24 40 38 33 55 91 39 140 -11 34 -6 61
59 320 38 156 70 290 70 298 0 13 3 13 28 0 61 -35 185 -69 332 -93 85 -14
156 -27 158 -28 2 -2 -4 -50 -13 -107 -58 -366 -60 -859 -3 -973 8 -17 21 -51
27 -76 15 -56 65 -121 86 -113 8 4 17 -1 21 -9 7 -20 56 -37 83 -30 11 3 22
15 24 27 3 17 5 15 6 -6 1 -24 5 -28 32 -28 23 0 32 5 36 21 4 16 8 17 14 7 7
-10 9 -8 9 7 1 19 1 19 11 2 6 -10 8 -25 5 -33 -9 -24 13 -16 26 10 7 14 16
25 20 26 37 4 48 28 88 190 17 68 22 115 22 240 0 173 -14 412 -37 635 -4 39
-11 90 -15 114 l-8 43 47 -6 c65 -9 244 -9 318 -1 l60 7 -32 -119 c-32 -117
-47 -188 -119 -559 -42 -218 -40 -232 37 -297 67 -57 88 -67 230 -111 134 -42
267 -61 521 -76 229 -13 626 1 626 23 0 5 -6 7 -13 4 -8 -3 -20 -1 -28 4 -10
6 -3 9 23 9 64 0 108 34 108 84 0 17 -35 47 -93 80 -54 31 -61 33 -172 51 -44
7 -116 20 -160 28 -114 22 -132 25 -419 52 -143 14 -262 27 -264 30 -8 7 30
345 39 351 4 2 59 0 121 -5 197 -17 398 -20 543 -6 121 10 130 12 66 14 -41 0
-72 3 -70 5 2 3 51 7 108 9 95 4 106 7 122 28 25 32 24 44 -8 79 -55 62 -184
103 -441 140 -51 8 -148 11 -249 8 l-165 -4 6 30 c4 17 9 72 13 123 3 50 9 96
12 101 3 6 75 12 164 13 131 3 160 1 167 -11 9 -14 14 -7 11 13 0 4 9 7 22 6
12 0 16 -3 10 -6 -7 -2 -13 -8 -13 -12 0 -14 95 1 103 15 4 8 18 14 30 13 21
-1 20 -2 -3 -9 l-25 -8 26 -1 c15 -1 29 5 32 13 8 20 93 32 111 16 11 -9 20
-9 37 0 12 7 24 8 28 3 15 -21 84 0 105 33 15 23 15 26 0 47 -67 88 -187 128
-474 158 -141 15 -453 7 -528 -14 -65 -18 -112 -59 -112 -99 l0 -28 -72 36
c-40 20 -75 38 -77 40 -2 1 4 24 13 50 19 57 14 69 -11 25 -34 -62 -36 -63
-67 -52 -91 35 -314 67 -566 81 -301 16 -442 13 -551 -15 l-27 -7 19 79 c10
43 21 88 24 99 3 14 15 24 36 28 49 10 89 57 89 106 0 23 -5 50 -10 61 -6 11
-7 25 -3 32 4 6 8 17 8 22 3 45 25 217 71 543 l53 383 36 40 c20 22 40 51 45
65 5 13 17 24 25 24 9 0 39 25 67 56 28 30 95 86 149 124 53 38 145 113 203
167 59 54 133 120 164 146 59 51 186 163 208 185 7 6 19 12 27 12 7 0 42 14
76 31 60 30 72 44 86 99 6 24 85 99 278 264 245 210 730 643 735 657 2 5 13
-2 24 -17 18 -22 27 -25 60 -21 65 9 138 88 138 150 0 9 25 58 56 109 31 51
72 119 91 150 64 105 63 106 63 -141 l0 -221 -22 5 c-65 16 -173 33 -180 29
-4 -3 -8 -11 -8 -19 0 -12 60 -30 171 -50 l36 -7 6 -111 c10 -166 8 -272 -4
-284 -8 -8 -8 -17 0 -32 7 -12 14 -93 16 -189 l5 -167 -110 324 c-138 407
-158 461 -176 461 -8 0 -14 -6 -14 -13 0 -27 91 -328 189 -627 137 -419 124
-385 155 -383 50 3 23 -53 -41 -86 -32 -16 -53 -14 -53 7 0 23 19 42 43 42 27
0 15 23 -17 35 -25 8 -31 6 -52 -18 -28 -32 -33 -97 -9 -117 8 -6 34 -12 58
-12 35 -1 54 6 89 31 49 35 68 66 68 111 0 31 -43 90 -66 90 -23 0 -29 29 -9
44 17 12 18 33 6 407 -6 217 -11 413 -11 435 l0 41 263 -53 c144 -30 272 -56
285 -59 17 -4 22 -12 22 -39 0 -39 26 -66 63 -66 33 0 32 27 12 -445 -8 -187
-15 -348 -15 -357 0 -12 -8 -18 -24 -18 -29 0 -48 -22 -45 -52 1 -13 -1 -30
-5 -39 -4 -9 -6 -34 -4 -55 3 -37 5 -39 39 -42 29 -2 42 4 77 35 51 47 65 100
35 130 -19 19 -19 30 -5 439 l13 419 29 25 c29 24 50 66 50 96 0 9 -13 29 -29
45 -37 36 -103 41 -123 9 -17 -27 -36 -25 -31 3 4 18 -47 73 -291 315 -162
160 -300 292 -305 292 -6 0 -11 20 -11 45 0 40 -4 48 -32 66 -43 26 -114 21
-140 -11 l-17 -21 -159 123 c-88 68 -200 152 -249 188 -87 62 -90 65 -82 93
11 39 -3 64 -42 72 -30 7 -89 -10 -89 -26 0 -4 -10 -9 -22 -11 -29 -4 -56 -52
-65 -113 -5 -40 -3 -50 12 -61 22 -16 81 -18 90 -4 4 6 21 -20 40 -57 29 -61
175 -337 299 -565 l48 -88 -25 -30 c-14 -16 -28 -39 -32 -49 -8 -25 -35 -29
-295 -36 -113 -3 -256 -8 -318 -11 l-113 -7 11 27 c5 15 10 37 10 50 0 23 -32
58 -60 68 -12 4 -20 40 -33 144 -10 77 -17 150 -17 164 0 26 39 70 105 119 17
12 76 65 133 118 82 76 100 98 91 109 -7 9 -17 11 -28 5 -23 -13 -186 -153
-248 -214 -29 -28 -55 -49 -57 -46 -3 3 -24 149 -46 325 -63 494 -72 548 -92
552 -14 3 -18 -4 -18 -30z m-1311 -507 c72 -1 57 -14 -45 -40 -44 -11 -224
-65 -399 -120 -293 -92 -320 -99 -331 -83 -102 141 -115 162 -97 162 26 0 117
64 147 103 l25 33 323 -28 c178 -15 348 -27 377 -27z m2122 -28 c41 -31 117
-91 169 -133 52 -42 132 -104 176 -138 78 -59 82 -64 87 -108 3 -27 13 -54 25
-66 20 -20 19 -20 -62 -149 -50 -79 -87 -127 -96 -126 -8 1 -33 36 -55 77
-156 283 -313 563 -341 606 l-32 51 21 22 c12 11 24 21 27 21 4 0 40 -26 81
-57z m-1909 -15 c2 -19 10 -24 45 -26 23 -2 51 2 63 8 18 10 34 -1 137 -92 64
-57 163 -141 219 -188 297 -245 392 -326 393 -332 1 -8 -211 -198 -339 -304
-47 -39 -123 -106 -170 -149 -47 -43 -123 -110 -170 -148 -47 -39 -121 -103
-165 -142 -101 -90 -106 -93 -94 -58 5 16 20 156 34 313 32 353 29 336 66 344
41 8 79 48 79 85 0 34 -39 71 -76 71 -20 0 -22 4 -18 33 5 36 44 464 44 484 0
13 -40 19 -40 6 -1 -5 -13 -125 -29 -267 -21 -196 -31 -261 -42 -265 -8 -2
-29 -19 -46 -37 -33 -32 -41 -62 -23 -80 11 -11 -25 -66 -164 -251 l-68 -92
-67 92 c-37 51 -147 209 -246 352 -98 143 -198 287 -222 319 -24 33 -40 63
-36 67 4 4 24 11 43 17 19 5 188 58 375 117 528 167 511 163 517 123z m-1090
-129 c32 -50 58 -93 58 -98 0 -7 -154 -57 -295 -96 -33 -9 -118 -35 -189 -57
-93 -29 -131 -37 -139 -29 -8 8 -8 11 1 11 7 0 25 12 40 27 15 15 63 58 107
96 44 38 131 116 193 173 l113 105 27 -21 c15 -12 53 -62 84 -111z m209 -309
c59 -85 191 -278 293 -429 l185 -274 -32 -46 c-18 -25 -35 -49 -39 -55 -6 -9
-40 9 -358 196 -80 47 -161 93 -180 103 -19 9 -134 75 -255 145 -121 70 -258
148 -305 173 -47 25 -85 50 -84 56 1 6 2 30 3 54 l1 43 238 74 c130 40 271 84
312 96 41 13 84 22 94 21 12 -1 58 -58 127 -157z m3494 -30 c96 -103 352 -365
453 -462 45 -44 56 -59 40 -55 -33 8 -277 53 -383 71 -49 8 -113 20 -141 26
l-51 11 -8 191 c-4 105 -10 214 -14 243 -7 54 -4 78 9 73 4 -2 47 -46 95 -98z
m-1389 -52 c18 -137 18 -168 -1 -168 -26 0 -19 -49 9 -60 13 -5 27 -14 31 -20
4 -6 16 -8 26 -5 19 6 19 5 4 -32 -26 -63 -78 -109 -109 -97 -19 7 -22 79 -6
134 8 27 7 38 -5 49 -12 13 -15 11 -25 -13 -5 -15 -10 -32 -10 -37 0 -5 -28
14 -62 43 -35 29 -76 64 -93 77 l-30 23 35 27 c19 14 75 63 125 107 49 45 92
80 93 79 2 -2 10 -50 18 -107z m-2459 -355 c48 -26 144 -81 213 -123 69 -42
184 -109 255 -150 72 -40 158 -90 191 -110 l62 -36 -82 -119 c-44 -66 -108
-157 -141 -202 -33 -45 -98 -135 -145 -201 -47 -67 -90 -118 -96 -115 -16 6
-62 -18 -96 -51 -16 -14 -28 -19 -28 -12 0 6 -17 57 -39 112 -35 90 -407 965
-499 1173 -20 46 -39 88 -40 93 -2 5 77 -41 177 -102 99 -60 220 -131 268
-157z m2168 188 c3 -5 39 -37 81 -70 62 -51 78 -59 94 -51 18 10 19 7 13 -40
-5 -44 -3 -54 17 -75 13 -14 34 -25 48 -25 30 0 44 42 -125 -376 -102 -255
-142 -343 -157 -350 -14 -6 -21 -18 -21 -38 0 -20 -12 -41 -43 -71 l-43 -43
-39 19 c-53 26 -323 134 -492 198 -145 54 -182 62 -176 35 5 -27 663 -304 687
-290 5 3 11 -8 13 -24 4 -28 -3 -37 -96 -113 -115 -94 -235 -198 -319 -274
-32 -29 -104 -85 -160 -124 -56 -40 -119 -88 -139 -107 -35 -34 -38 -35 -56
-19 -10 9 -28 17 -40 17 l-22 0 -1 303 c-1 166 -4 372 -8 457 l-6 155 49 44
c43 40 47 48 43 77 -5 31 0 37 111 136 64 56 150 132 191 167 42 36 114 99
161 141 47 41 130 115 185 162 55 48 125 109 155 137 53 48 82 61 95 42z
m-999 -113 c-3 -13 -17 -144 -31 -293 -14 -148 -29 -283 -33 -299 -7 -28 -8
-27 -63 55 -31 46 -75 109 -97 140 l-41 56 121 181 c111 168 156 218 144 160z
m1413 -78 c12 -6 129 -6 331 1 172 5 314 9 315 7 2 -2 -33 -33 -78 -70 -45
-37 -125 -106 -177 -153 -52 -48 -125 -111 -161 -140 -36 -29 -130 -111 -210
-181 -167 -149 -349 -307 -364 -316 -6 -4 -17 -3 -24 2 -11 6 2 48 57 191 169
439 214 567 207 580 -5 6 72 88 83 89 2 0 11 -4 21 -10z m-1771 -468 c80 -55
213 -123 231 -117 22 7 39 -28 23 -48 -5 -7 -15 -28 -21 -48 -11 -34 -26 -44
-204 -144 -106 -60 -230 -128 -277 -153 -47 -25 -116 -62 -153 -83 -38 -22
-71 -39 -73 -39 -15 0 4 36 58 110 34 47 105 148 157 226 167 246 216 313 224
314 5 0 21 -8 35 -18z m322 -1156 c-17 -17 -11 -46 15 -74 25 -26 26 -26 40
-8 8 11 18 17 21 13 10 -10 -16 -65 -46 -97 -37 -39 -60 -39 -60 0 0 34 2 35
30 18 26 -16 36 -4 22 27 -9 20 -19 25 -46 25 -37 0 -39 -3 -52 -74 -5 -31
-16 -44 -52 -70 -25 -17 -99 -72 -166 -123 -67 -51 -124 -89 -128 -85 -3 4
-87 167 -186 362 -99 195 -194 379 -210 409 l-30 54 31 43 c34 46 153 121 431
271 77 41 180 99 229 129 50 30 99 54 111 54 12 0 28 5 36 10 13 8 15 -43 18
-432 1 -288 -1 -445 -8 -452z m-19 -246 c11 0 18 -3 16 -7 -3 -5 -14 -78 -26
-163 -49 -360 -95 -660 -101 -660 -8 0 -82 151 -76 157 3 3 -13 41 -34 84 -22
43 -40 85 -40 93 0 8 -25 63 -56 121 -30 58 -54 110 -52 114 2 4 71 63 155
130 84 66 155 126 159 132 3 6 13 8 21 5 8 -3 24 -6 34 -6z m-350 -467 c43
-87 108 -226 147 -309 l69 -152 -40 -5 c-80 -11 -123 -73 -98 -143 l13 -35
-119 -148 c-65 -82 -165 -210 -223 -285 -58 -74 -108 -135 -111 -135 -6 -1
-50 83 -302 574 -104 203 -108 211 -96 245 11 35 84 97 374 318 50 38 137 108
194 155 57 48 107 85 110 83 3 -3 40 -76 82 -163z m-1079 -193 c28 -41 70
-100 93 -130 34 -45 41 -61 38 -87 -4 -22 1 -37 14 -50 20 -20 19 -20 -61 -81
-45 -33 -130 -98 -191 -144 -60 -46 -153 -116 -205 -155 -52 -39 -116 -88
-143 -108 -26 -21 -50 -35 -54 -31 -3 3 -5 32 -4 64 2 59 27 111 221 462 26
47 82 152 125 234 l78 149 19 -24 c10 -13 42 -58 70 -99z m410 -546 c71 -148
159 -329 195 -401 l65 -133 -48 -63 c-27 -35 -101 -133 -164 -217 l-115 -152
-85 5 c-47 4 -195 16 -329 28 -225 21 -244 24 -252 43 -5 12 -54 124 -109 249
-55 126 -100 234 -100 240 0 7 7 21 15 31 8 11 15 30 15 42 0 12 11 29 25 38
23 15 548 418 638 489 20 17 37 36 37 44 0 7 10 13 23 13 12 0 29 4 37 10 8 5
16 7 18 6 2 -2 62 -125 134 -272z m759 -65 c-15 -57 -38 -121 -51 -142 -14
-24 -20 -45 -16 -60 10 -32 -145 -648 -162 -645 -7 2 -53 87 -103 189 l-91
185 95 125 c290 383 350 460 354 455 1 -1 -10 -49 -26 -107z m-1761 -349 c14
0 27 -26 61 -117 23 -65 64 -174 91 -242 26 -69 46 -126 45 -127 -2 -2 -833
71 -924 81 -34 4 -53 12 -58 22 -3 9 -1 19 5 22 83 46 287 163 473 272 l232
137 28 -24 c16 -13 37 -24 47 -24z m1463 -562 c-29 -60 0 -148 48 -148 15 0
17 -3 9 -17 -12 -23 -173 -444 -323 -848 -97 -261 -134 -368 -152 -441 -3 -10
-351 -31 -360 -22 -2 2 -21 111 -44 243 -22 132 -52 298 -66 369 -24 128 -24
129 -5 154 11 13 20 35 20 47 0 19 22 34 133 90 72 38 191 101 262 140 72 40
204 111 295 160 163 86 200 110 200 127 0 19 -49 5 -134 -41 -50 -27 -170 -89
-266 -139 -96 -50 -245 -129 -330 -176 -153 -83 -155 -84 -171 -64 -15 19 -15
23 2 42 10 12 46 58 81 102 35 45 108 137 163 205 55 68 108 134 116 147 l16
23 203 -21 c243 -24 239 -24 247 -4 12 33 -19 42 -207 59 -102 9 -189 17 -193
18 -7 2 45 72 217 291 l69 88 92 -178 c85 -167 90 -181 78 -206z m-1843 77
c135 -13 325 -31 423 -39 98 -8 180 -16 181 -18 1 -1 53 -124 115 -273 62
-148 121 -279 130 -290 9 -11 15 -29 14 -40 -3 -18 -48 -31 -369 -109 -201
-48 -367 -86 -369 -85 -13 15 -138 184 -171 233 -23 34 -120 166 -218 295 -97
129 -176 239 -176 245 0 6 100 -39 223 -100 122 -61 255 -126 295 -143 40 -18
157 -73 260 -122 272 -132 434 -207 463 -214 28 -7 53 13 41 33 -8 11 -424
217 -512 252 -25 10 -139 64 -255 120 -224 109 -371 176 -447 204 l-46 17 15
37 14 38 72 -8 c40 -4 182 -19 317 -33z m980 -90 c135 -13 255 -25 268 -25 24
0 6 -26 -208 -300 -37 -47 -83 -109 -103 -138 -33 -48 -36 -50 -42 -30 -7 23
-203 497 -212 511 -7 11 33 9 297 -18z m-1415 -82 c21 -32 68 -98 105 -148
148 -200 296 -404 346 -476 l52 -76 -191 -50 c-152 -39 -195 -47 -206 -37 -8
7 -39 156 -77 375 -36 200 -71 388 -78 417 -18 71 0 69 49 -5z m1295 -595 c0
-6 8 -21 18 -32 14 -16 24 -64 41 -201 29 -231 70 -525 77 -546 4 -14 -16 -17
-168 -23 -172 -7 -172 -7 -190 16 -20 25 -101 135 -185 251 l-51 72 56 60 c31
33 129 136 217 228 88 92 162 172 163 177 5 14 22 12 22 -2z m-287 -203 c-109
-113 -200 -205 -203 -205 -8 0 -203 260 -199 265 5 4 568 143 587 144 8 1 -76
-91 -185 -204z m-354 -107 l110 -153 -100 -101 c-70 -72 -98 -106 -93 -118 12
-32 44 -14 136 80 l94 96 79 -114 c43 -62 92 -130 108 -151 16 -21 27 -40 25
-42 -2 -3 -92 -8 -199 -11 l-195 -7 -17 27 c-10 14 -23 26 -31 26 -10 0 -12
13 -8 49 3 40 1 52 -17 70 -27 27 -53 27 -88 -3 l-29 -25 -41 52 c-23 29 -94
111 -157 182 -111 124 -116 132 -110 165 3 19 9 38 12 42 6 5 363 84 399 87 6
1 61 -68 122 -151z m-100 -534 c-13 -15 -4 -34 16 -34 8 0 26 -21 41 -47 15
-27 82 -140 148 -253 66 -113 143 -248 171 -300 28 -52 116 -205 195 -340
l143 -244 -49 -148 c-26 -81 -52 -148 -56 -148 -4 0 -8 4 -8 10 0 5 -52 132
-116 282 -64 150 -132 314 -151 363 -43 111 -258 622 -322 766 -37 82 -45 109
-37 122 10 16 12 16 23 0 9 -12 10 -20 2 -29z m1299 -9 c7 -14 19 -28 27 -31
13 -5 11 -12 -12 -43 -39 -52 -265 -315 -273 -319 -18 -7 -29 35 -54 193 -15
94 -30 180 -33 192 -5 22 -2 22 89 26 257 9 244 10 256 -18z m-382 -187 l31
-193 -25 -37 -24 -37 -52 72 c-29 40 -100 139 -159 220 -59 81 -107 150 -107
152 0 4 89 9 230 13 l76 2 30 -192z m-397 150 c14 -22 181 -249 300 -408 31
-41 62 -94 69 -117 7 -23 16 -44 20 -47 7 -4 -42 -156 -161 -509 -1 -5 -45 63
-96 150 -191 322 -321 543 -434 738 l-116 200 87 6 c48 3 139 6 202 7 110 2
116 1 129 -20z m522 -886 c28 -114 63 -254 79 -312 15 -58 32 -130 38 -160 6
-30 21 -95 32 -145 58 -245 86 -445 64 -445 -5 0 -63 91 -128 203 -66 111
-168 285 -228 387 -92 155 -108 190 -103 215 3 17 42 144 87 283 96 297 78
300 159 -26z m-166 -567 c43 -77 111 -194 150 -260 92 -155 165 -283 165 -290
0 -4 -141 87 -445 289 -49 32 -91 60 -92 61 -2 1 6 19 17 40 22 44 26 95 8
113 -7 7 -8 15 -1 24 5 7 23 49 38 93 16 44 32 91 37 105 l9 24 18 -29 c10
-17 53 -93 96 -170z"/>
<path d="M10376 12255 c3 -8 57 -117 120 -242 63 -125 114 -231 114 -236 0 -5
-18 -6 -40 -2 -22 4 -69 3 -105 0 -53 -6 -65 -11 -63 -24 3 -13 23 -17 118
-22 63 -4 168 -7 233 -8 110 -1 117 0 117 19 0 24 -19 29 -124 32 l-79 3 -95
175 c-52 96 -113 208 -134 248 -22 39 -46 72 -53 72 -9 0 -12 -6 -9 -15z"/>
<path d="M8768 11894 c-16 -15 -7 -23 30 -29 20 -3 59 -13 87 -21 92 -27 229
-44 450 -54 121 -5 315 -21 430 -34 116 -14 218 -26 228 -26 18 0 24 34 8 44
-21 13 -535 66 -641 66 -148 0 -327 16 -410 36 -82 19 -173 28 -182 18z"/>
<path d="M14975 10214 c-138 -33 -222 -57 -254 -73 -20 -11 -80 -29 -132 -40
-52 -12 -107 -26 -123 -31 -19 -6 -34 -6 -42 0 -14 13 -27 -13 -14 -26 5 -5
-10 -37 -35 -74 -26 -37 -44 -76 -43 -90 0 -14 -14 -56 -31 -93 -18 -38 -43
-118 -56 -177 -14 -60 -29 -120 -35 -134 -32 -85 -60 -301 -60 -468 0 -42 -4
-80 -10 -83 -5 -3 -10 -23 -10 -44 0 -21 -7 -58 -15 -81 -8 -23 -15 -64 -15
-91 0 -42 4 -51 36 -77 32 -27 37 -38 54 -123 26 -130 53 -206 115 -324 29
-55 67 -140 85 -190 17 -49 41 -112 54 -140 55 -118 95 -267 126 -465 23 -150
-2 -447 -48 -567 -43 -111 -132 -215 -248 -289 -74 -47 -116 -60 -258 -75 -95
-11 -123 -11 -154 0 -48 17 -127 69 -191 125 -60 53 -82 61 -176 61 -61 0 -81
-5 -152 -39 -79 -38 -84 -38 -170 -34 -96 5 -156 25 -251 85 -58 37 -72 40
-72 18 0 -27 84 -98 160 -134 72 -35 79 -36 185 -36 107 1 112 1 182 38 57 29
84 37 125 37 63 0 93 -15 180 -89 86 -74 146 -101 228 -101 84 0 221 17 285
35 61 17 158 78 227 143 50 46 132 160 156 216 33 75 55 223 59 396 4 171 1
215 -36 410 -11 58 -76 247 -110 322 -11 23 -38 89 -60 145 -23 57 -63 142
-90 190 -50 87 -94 218 -107 311 l-6 49 107 6 c80 4 114 3 134 -7 14 -8 53
-19 85 -26 81 -17 130 -39 205 -95 88 -65 200 -122 255 -130 31 -5 87 0 169
14 157 28 215 45 302 88 81 40 122 75 130 113 5 23 10 26 31 22 22 -4 25 -9
20 -31 -10 -44 -42 -571 -56 -931 -5 -107 -11 -220 -14 -250 -3 -30 -11 -125
-17 -210 -18 -271 -90 -735 -150 -974 -47 -188 -117 -404 -159 -491 -21 -44
-67 -127 -102 -185 -35 -58 -112 -201 -171 -319 -112 -221 -249 -457 -346
-596 -119 -169 -129 -188 -201 -380 -67 -177 -108 -254 -260 -490 -128 -198
-157 -236 -304 -400 -274 -305 -407 -415 -561 -465 -22 -7 -92 -37 -155 -67
-160 -76 -200 -91 -320 -119 -79 -19 -126 -25 -191 -22 -62 2 -91 -1 -103 -11
-23 -19 -20 -38 9 -57 22 -15 45 -16 158 -11 73 3 146 11 162 17 17 7 54 18
84 26 29 8 117 44 195 80 77 37 165 75 195 85 174 60 323 187 627 529 211 238
453 624 538 857 56 153 81 202 181 353 143 216 273 438 379 650 57 113 127
244 156 290 97 155 157 287 210 465 51 170 97 359 119 490 44 271 82 562 96
740 9 115 19 213 21 217 3 5 7 86 9 181 3 95 10 286 16 426 7 140 9 301 6 359
-8 142 1 235 22 227 67 -26 164 -16 187 20 15 23 14 29 -11 94 -14 39 -34 80
-44 93 -10 13 -28 42 -40 66 -12 24 -38 60 -57 82 -34 37 -34 39 -12 42 22 3
23 8 29 123 8 153 39 269 78 288 18 8 39 39 66 94 46 94 95 153 128 153 13 0
28 5 35 12 9 9 15 9 24 0 18 -18 63 -14 81 6 23 26 21 83 -7 172 -31 102 -48
131 -101 178 -77 67 -323 152 -540 186 -109 18 -540 39 -580 30z m245 -59 c47
-9 135 -18 195 -21 177 -9 388 -59 535 -126 90 -42 153 -105 170 -170 6 -23
15 -59 21 -78 13 -50 12 -52 -15 -34 -65 42 -285 108 -428 129 -62 9 -169 26
-238 37 -69 11 -156 24 -195 29 -38 5 -104 13 -145 19 -97 13 -330 13 -406 0
-62 -11 -187 -52 -239 -77 -16 -9 -54 -33 -83 -55 -38 -28 -50 -34 -43 -20 6
12 11 28 11 38 0 9 14 40 32 68 17 28 38 62 45 74 25 42 24 17 -2 -39 -29 -62
-18 -75 27 -33 27 27 29 34 26 81 l-5 52 56 12 c69 14 200 51 261 74 63 24
215 53 280 54 30 1 93 -6 140 -14z m-224 -272 c91 -8 71 -20 -36 -22 -36 -1
-90 -8 -120 -16 -30 -8 -108 -26 -174 -40 -65 -14 -141 -32 -169 -40 -28 -8
-52 -13 -54 -11 -7 7 77 52 127 69 95 33 157 48 225 56 98 12 112 12 201 4z
m729 -125 c77 -20 162 -38 190 -42 65 -8 76 -20 44 -49 -73 -65 -158 -202
-201 -327 -25 -72 -30 -106 -35 -215 l-5 -130 -92 88 c-108 104 -178 155 -289
208 -96 46 -164 59 -302 59 -115 0 -206 -12 -323 -41 -219 -54 -341 -116 -454
-231 l-58 -59 0 33 c0 108 25 288 56 408 18 74 34 144 34 154 0 18 1 18 20 1
23 -21 34 -17 109 34 59 41 108 56 356 107 183 38 235 42 540 39 l270 -2 140
-35z m-544 -488 c90 -16 245 -101 333 -182 42 -39 75 -72 72 -75 -2 -2 -35 12
-74 31 -103 52 -209 78 -336 83 -93 4 -111 2 -128 -14 -12 -11 -18 -26 -15
-41 3 -17 1 -22 -10 -18 -8 3 -28 6 -44 6 -22 0 -32 6 -38 24 -12 30 -30 37
-121 43 -66 4 -99 -1 -265 -41 -104 -26 -212 -58 -240 -71 l-50 -25 53 50
c122 115 298 185 572 230 68 11 230 11 291 0z m-486 -318 c1 -64 4 -142 9
-173 9 -71 56 -152 112 -195 56 -42 205 -78 303 -72 61 3 77 8 128 43 32 22
76 59 99 83 l41 43 34 -20 c19 -10 53 -25 77 -32 59 -17 54 -43 -18 -85 -106
-63 -300 -110 -427 -102 -75 4 -150 36 -243 103 -68 49 -142 84 -217 101 -38
8 -85 21 -106 29 -35 14 -147 14 -238 0 -24 -4 -27 0 -37 46 -7 28 -12 68 -12
89 0 86 111 157 323 210 103 25 172 45 172 49 0 1 0 -52 0 -117z m634 82 c64
-20 130 -44 146 -54 17 -9 62 -29 101 -44 40 -15 92 -45 121 -69 54 -45 130
-149 150 -205 l13 -34 -43 5 c-23 3 -75 11 -114 18 l-73 13 0 40 c0 51 -24 91
-97 162 -70 67 -108 87 -193 103 -35 7 -81 21 -102 32 -20 10 -51 19 -67 19
-42 0 -61 9 -61 31 0 31 84 25 219 -17z m-430 -9 c30 -8 57 -18 60 -23 3 -5
37 -20 75 -33 58 -20 79 -35 145 -99 42 -41 92 -87 111 -101 l35 -26 -27 -35
c-14 -18 -54 -53 -89 -76 -70 -47 -108 -53 -208 -28 -31 8 -68 17 -83 20 -30
7 -93 57 -108 87 -16 29 -50 216 -50 275 l0 54 43 0 c23 0 66 -7 96 -15z m456
-135 c30 0 73 -30 143 -98 42 -43 62 -70 62 -86 l0 -25 -52 18 c-49 17 -113
64 -232 173 l-50 46 54 -14 c30 -8 64 -14 75 -14z"/>
<path d="M12997 9804 c-36 -19 -47 -43 -47 -102 0 -46 -2 -49 -24 -49 -54 0
-118 -57 -190 -170 -70 -109 -282 -528 -346 -684 l-56 -138 -32 54 c-36 59
-128 155 -212 220 -30 23 -125 86 -210 139 -85 54 -158 103 -162 109 -12 19
-9 66 6 96 21 40 135 143 197 179 64 36 167 72 207 72 20 0 33 7 42 25 12 22
11 27 -6 46 -61 69 -187 105 -333 96 -121 -7 -194 -26 -299 -78 -98 -48 -195
-134 -236 -210 -25 -45 -28 -59 -23 -110 3 -38 14 -75 32 -104 34 -58 151
-158 268 -228 211 -126 278 -202 293 -329 11 -97 -13 -121 -181 -178 -78 -26
-82 -27 -129 -12 l-49 16 -30 -35 c-19 -22 -25 -26 -17 -11 27 53 -21 70 -72
27 -35 -29 -35 -29 -42 8 -24 134 -148 301 -336 453 -151 122 -224 192 -247
239 -31 60 -33 117 -5 172 39 75 156 162 222 163 20 0 22 2 10 10 -10 6 6 8
50 6 47 -3 55 -2 30 4 -28 6 -22 7 24 5 32 -2 62 -7 65 -12 3 -4 30 -9 60 -10
41 -1 58 3 68 15 18 24 17 27 -24 68 -82 79 -294 154 -437 154 -220 -1 -415
-111 -501 -282 -43 -86 -46 -146 -12 -228 37 -90 81 -146 247 -315 176 -180
233 -252 262 -332 27 -79 22 -105 -25 -121 -57 -18 -177 -28 -177 -14 0 14
-71 51 -108 58 -15 2 -42 7 -60 10 -24 5 -38 1 -53 -12 -21 -19 -21 -18 -18 1
3 17 -1 20 -31 18 -28 -1 -44 -11 -81 -52 -62 -69 -74 -111 -50 -167 14 -31
34 -52 78 -80 77 -49 108 -62 217 -85 221 -49 437 -68 476 -44 7 5 34 9 60 10
54 3 102 25 150 70 19 18 51 48 71 67 l36 33 18 -24 c26 -34 129 -98 178 -110
23 -6 94 -24 157 -41 219 -59 371 -39 486 62 l36 32 20 -27 c11 -15 26 -27 34
-27 8 0 14 -7 14 -15 0 -8 3 -15 8 -16 77 -8 106 -8 119 3 11 9 16 9 23 -1 6
-11 13 -11 36 0 28 14 68 74 59 89 -7 11 13 59 123 283 l96 197 60 -1 c49 -1
55 -3 31 -9 l-30 -8 27 -1 c27 -1 27 -2 21 -53 -7 -60 5 -59 32 4 11 24 23 46
28 49 5 3 8 9 8 13 -1 3 1 6 4 6 36 0 40 -2 20 -10 -16 -7 -13 -9 17 -9 20 -1
43 -4 52 -7 11 -4 16 -1 16 10 0 9 4 16 10 16 5 0 9 -6 7 -12 -1 -9 12 -13 42
-13 l45 0 32 -94 c18 -51 58 -143 88 -203 46 -91 55 -116 50 -143 -3 -18 -1
-42 5 -53 20 -37 100 -94 144 -103 47 -9 110 -2 101 12 -3 5 6 5 19 0 14 -6
28 -7 32 -3 4 4 10 7 13 8 43 5 65 52 83 173 19 136 -3 304 -75 556 -134 472
-267 792 -380 913 -45 48 -114 95 -142 95 -13 0 -24 3 -24 7 0 16 -26 17 -53
4z m12 -702 c13 -85 25 -162 28 -171 4 -17 -6 -19 -104 -23 -59 -3 -109 -5
-110 -4 -2 1 20 56 48 122 27 65 62 147 76 182 15 34 30 59 33 55 4 -5 17 -77
29 -161z"/>
<path d="M12119 7403 c-19 -5 -27 -40 -36 -170 l-6 -92 29 -11 c65 -25 91 5
119 141 22 103 20 115 -16 128 -32 11 -60 12 -90 4z"/>
<path d="M12097 6492 c-25 -27 -67 -138 -70 -180 -2 -35 0 -37 30 -40 47 -5
69 23 82 104 17 101 -4 158 -42 116z"/>
<path d="M13340 5846 c-47 -18 -100 -41 -119 -50 -19 -10 -76 -29 -125 -43
-77 -20 -144 -49 -263 -112 -49 -26 -255 -121 -262 -121 -5 0 -52 -30 -106
-66 -53 -36 -121 -77 -151 -91 -48 -22 -57 -23 -96 -12 -24 7 -60 26 -80 41
-37 29 -101 50 -188 62 -25 4 -85 27 -134 51 -97 49 -111 52 -119 30 -10 -24
49 -65 94 -65 21 0 62 -9 91 -21 29 -11 80 -24 113 -29 77 -12 276 -111 300
-151 4 -6 21 -20 39 -31 17 -11 24 -18 15 -15 -29 9 -11 -26 28 -55 41 -32 69
-37 59 -12 -6 15 -4 15 19 0 15 -10 38 -16 53 -14 25 3 23 5 -31 41 -31 22
-60 43 -63 48 -14 24 51 4 139 -42 71 -38 114 -69 159 -116 70 -71 226 -182
334 -236 96 -49 299 -115 419 -139 131 -25 408 -35 524 -19 142 20 263 42 310
58 59 20 211 157 211 190 0 13 -7 26 -15 29 -8 4 -15 14 -15 25 0 27 -62 194
-102 274 -20 39 -52 112 -72 164 -21 52 -52 124 -70 160 -18 36 -41 91 -51
121 -23 70 -71 120 -114 120 -18 0 -63 -17 -105 -40 -79 -43 -109 -48 -198
-29 -57 12 -94 31 -174 91 -46 34 -57 38 -110 37 -41 0 -85 -10 -144 -33z
m211 -75 c96 -79 183 -111 306 -111 58 0 75 5 139 40 82 45 83 44 107 -35 8
-27 35 -93 60 -145 24 -52 50 -113 57 -135 7 -22 34 -85 60 -140 26 -55 51
-111 55 -125 l8 -24 -28 18 c-16 10 -49 34 -74 54 -55 42 -279 150 -411 199
-168 61 -265 75 -510 73 -286 -2 -609 -16 -694 -30 -38 -6 -90 -19 -115 -29
-25 -10 -55 -22 -66 -26 -67 -26 129 86 247 141 79 36 188 88 243 115 55 27
142 60 192 73 51 14 112 34 135 45 78 38 172 69 213 70 31 1 49 -6 76 -28z
m-61 -416 c69 -8 150 -19 180 -25 143 -28 449 -173 582 -275 46 -36 102 -75
126 -87 23 -12 42 -25 42 -28 0 -4 -26 -32 -57 -62 -53 -50 -66 -56 -144 -76
-101 -25 -212 -38 -399 -47 -367 -18 -789 125 -1028 348 -101 95 -120 107
-230 154 l-93 40 53 17 c75 24 188 36 421 45 319 12 413 12 547 -4z"/>
</g>
</svg>
